<?xml version="1.0" encoding="UTF-8" standalone="no"?>
<svg
   xmlns:dc="http://purl.org/dc/elements/1.1/"
   xmlns:cc="http://creativecommons.org/ns#"
   xmlns:rdf="http://www.w3.org/1999/02/22-rdf-syntax-ns#"
   xmlns:svg="http://www.w3.org/2000/svg"
   xmlns="http://www.w3.org/2000/svg"
   xmlns:sodipodi="http://sodipodi.sourceforge.net/DTD/sodipodi-0.dtd"
   xmlns:inkscape="http://www.inkscape.org/namespaces/inkscape"
   version="1.1"
   width="100"
   height="100"
   viewBox="0 0 100 100"
   id="svg2"
   inkscape:version="0.48.3.1 r9886"
   sodipodi:docname="noun_project_2185.svg">
  <metadata
     id="metadata16">
    <rdf:RDF>
      <cc:Work
         rdf:about="">
        <dc:format>image/svg+xml</dc:format>
        <dc:type
           rdf:resource="http://purl.org/dc/dcmitype/StillImage" />
        <dc:title>FAQ</dc:title>
        <cc:license
           rdf:resource="http://creativecommons.org/licenses/by/3.0/" />
      </cc:Work>
      <cc:License
         rdf:about="http://creativecommons.org/licenses/by/3.0/">
        <cc:permits
           rdf:resource="http://creativecommons.org/ns#Reproduction" />
        <cc:permits
           rdf:resource="http://creativecommons.org/ns#Distribution" />
        <cc:requires
           rdf:resource="http://creativecommons.org/ns#Notice" />
        <cc:requires
           rdf:resource="http://creativecommons.org/ns#Attribution" />
        <cc:permits
           rdf:resource="http://creativecommons.org/ns#DerivativeWorks" />
      </cc:License>
    </rdf:RDF>
  </metadata>
  <defs
     id="defs14" />
  <sodipodi:namedview
     pagecolor="#ffffff"
     bordercolor="#666666"
     borderopacity="1"
     objecttolerance="10"
     gridtolerance="10"
     guidetolerance="10"
     inkscape:pageopacity="0"
     inkscape:pageshadow="2"
     inkscape:window-width="1037"
     inkscape:window-height="480"
     id="namedview12"
     showgrid="false"
     inkscape:zoom="2.36"
     inkscape:cx="50"
     inkscape:cy="50"
     inkscape:window-x="559"
     inkscape:window-y="340"
     inkscape:window-maximized="0"
     inkscape:current-layer="svg2" />
  <title
     id="title4">FAQ</title>
  <path
     d="m 97.627,80.445283 c -3.061,-2.112 -5.205,-5.248 -6.668,-8.203 4.944,-3.035 8.047,-7.409 8.047,-12.272 0,-8.125 -8.665,-14.883 -20.105,-16.312 0,0.058 0.003,0.116 0.003,0.173 0,11.305 -10.888,20.895 -25.979,24.268 4.22,5.052 12.248,8.467 21.462,8.467 2.849,0 5.585,-0.328 8.13,-0.928 5.452,4.078 23.995,10.94 15.11,4.807 z"
     id="path8" />
  <path
     d="m 39.4375,17.112283 c -20.943,0 -37.90625,11.4445 -37.90625,25.5625 0,7.491 4.79025,14.23125 12.40625,18.90625 -2.253,4.551 -5.56625,9.37 -10.28125,12.625 -13.685,9.445 14.88225,-1.12425 23.28125,-7.40625 3.92,0.924 8.111,1.4375 12.5,1.4375 4.172,0 8.21375,-0.44225 11.96875,-1.28125 15.091,-3.373 25.96875,-12.97525 25.96875,-24.28125 l 0,-0.1875 c -0.14,-14.037 -17.0795,-25.375 -37.9375,-25.375 z m -0.21875,7.28125 c 0.972558,0.01027 1.949988,0.117409 2.90625,0.3125 3.829814,0.804716 8.368118,4.544857 8.375,9.96875 -0.0069,5.44454 -4.350818,7.508943 -5.90625,8.53125 -1.552784,1.014895 -2.107515,2.192837 -2.09375,3.4375 l 0,4.59375 -5.9375,0.03125 0,-6.84375 c 0.0048,-2.027143 0.658725,-3.433308 2.59375,-4.6875 l 3.34375,-2.25 c 2.133557,-1.454313 2.103737,-4.377719 0.78125,-5.6875 -1.172662,-1.130838 -3.114841,-1.786358 -5.21875,-1.375 -3.824519,0.786186 -4.136647,3.601334 -4.125,6.28125 l 0,1.1875 -5.9375,0 c 0.01059,-5.035829 0.57801,-7.314346 3.21875,-10.1875 2.202513,-2.427649 5.082325,-3.343322 8,-3.3125 z m -2.6875,29.1875 6,0 0,6.0625 -6,0 0,-6.0625 z"
     id="path10" />
</svg>
