<svg xmlns="http://www.w3.org/2000/svg" xmlns:xlink="http://www.w3.org/1999/xlink" version="1.1" x="0px" y="0px" viewBox="0 0 100 100" enable-background="new 0 0 100 100" xml:space="preserve"><path fill="#000000" d="M93.615,48.616h-9.431l7.19-7.19c0.541-0.541,0.541-1.417,0-1.958c-0.54-0.541-1.418-0.541-1.958,0  l-9.148,9.148h-6.537l7.189-7.19c0.541-0.541,0.541-1.417,0-1.958c-0.54-0.541-1.417-0.541-1.958,0l-9.147,9.148H52.398  l8.708-15.083l12.497-3.348c0.738-0.198,1.177-0.958,0.979-1.696c-0.197-0.738-0.956-1.175-1.695-0.979l-9.822,2.632l3.269-5.662  l12.497-3.348c0.739-0.198,1.177-0.958,0.979-1.696c-0.197-0.738-0.955-1.175-1.696-0.979l-9.821,2.632l4.715-8.167  c0.383-0.663,0.155-1.509-0.507-1.892c-0.663-0.384-1.509-0.155-1.892,0.507l-4.715,8.167l-2.632-9.822  c-0.197-0.738-0.955-1.175-1.696-0.979c-0.738,0.198-1.177,0.957-0.979,1.696l3.348,12.497l-3.269,5.661l-2.631-9.822  c-0.198-0.738-0.956-1.175-1.696-0.979c-0.738,0.198-1.177,0.957-0.979,1.696l3.348,12.497L50,47.231l-8.708-15.083l3.348-12.497  c0.198-0.739-0.241-1.498-0.979-1.696c-0.739-0.196-1.498,0.24-1.696,0.979l-2.632,9.822l-3.269-5.661l3.349-12.497  c0.197-0.739-0.241-1.498-0.979-1.696c-0.739-0.196-1.498,0.24-1.696,0.979l-2.632,9.822l-4.715-8.167  c-0.383-0.663-1.229-0.891-1.892-0.507c-0.662,0.382-0.889,1.229-0.507,1.892l4.715,8.167l-9.822-2.632  c-0.739-0.196-1.498,0.24-1.696,0.979s0.241,1.498,0.979,1.696l12.497,3.348l3.269,5.662l-9.822-2.632  c-0.738-0.197-1.498,0.24-1.696,0.979s0.241,1.498,0.979,1.696l12.497,3.348l8.708,15.083H30.185l-9.148-9.148  c-0.541-0.541-1.417-0.541-1.958,0c-0.541,0.541-0.541,1.417,0,1.958l7.19,7.19h-6.538l-9.148-9.148  c-0.541-0.541-1.418-0.541-1.958,0c-0.541,0.541-0.541,1.417,0,1.958l7.19,7.19h-9.43C5.62,48.616,5,49.235,5,50  s0.62,1.385,1.385,1.385h9.43l-7.19,7.19c-0.541,0.541-0.541,1.417,0,1.958c0.27,0.271,0.625,0.405,0.979,0.405  c0.354,0,0.708-0.135,0.979-0.405l9.148-9.148h6.538l-7.19,7.19c-0.541,0.541-0.541,1.417,0,1.958  c0.271,0.271,0.625,0.405,0.979,0.405c0.354,0,0.709-0.135,0.979-0.405l9.148-9.148h17.417l-8.708,15.083l-12.497,3.349  c-0.738,0.198-1.177,0.957-0.979,1.696c0.166,0.618,0.725,1.026,1.336,1.026c0.119,0,0.239-0.016,0.359-0.048l9.822-2.632  l-3.269,5.662L21.17,78.869c-0.739,0.198-1.177,0.958-0.979,1.696c0.166,0.619,0.726,1.026,1.337,1.026  c0.118,0,0.239-0.015,0.359-0.047l9.822-2.632l-4.715,8.167c-0.382,0.662-0.155,1.509,0.507,1.892  c0.218,0.125,0.456,0.186,0.691,0.186c0.479,0,0.944-0.248,1.201-0.693l4.715-8.166l2.632,9.821  c0.166,0.619,0.725,1.026,1.337,1.026c0.118,0,0.239-0.015,0.359-0.047c0.739-0.198,1.177-0.958,0.979-1.696l-3.349-12.496  l3.269-5.662l2.632,9.822c0.166,0.619,0.725,1.026,1.336,1.026c0.119,0,0.239-0.016,0.359-0.048  c0.738-0.197,1.177-0.957,0.979-1.695l-3.348-12.497L50,52.77l8.708,15.083L55.36,80.35c-0.198,0.738,0.24,1.498,0.979,1.695  c0.12,0.032,0.24,0.048,0.359,0.048c0.611,0,1.171-0.407,1.337-1.026l2.631-9.822l3.269,5.662l-3.348,12.496  c-0.198,0.738,0.24,1.498,0.979,1.696c0.12,0.032,0.24,0.047,0.359,0.047c0.611,0,1.171-0.407,1.337-1.026l2.632-9.821l4.715,8.166  c0.257,0.445,0.723,0.693,1.2,0.693c0.235,0,0.474-0.061,0.691-0.186c0.662-0.383,0.89-1.229,0.507-1.892l-4.715-8.167l9.821,2.632  c0.12,0.032,0.241,0.047,0.359,0.047c0.612,0,1.171-0.407,1.337-1.026c0.197-0.738-0.24-1.498-0.979-1.696l-12.497-3.348  l-3.269-5.662l9.822,2.632c0.12,0.032,0.24,0.048,0.359,0.048c0.611,0,1.171-0.408,1.336-1.026c0.198-0.739-0.24-1.498-0.979-1.696  l-12.497-3.349l-8.708-15.083h17.417l9.147,9.148c0.271,0.271,0.625,0.405,0.979,0.405s0.708-0.135,0.979-0.405  c0.541-0.541,0.541-1.417,0-1.958l-7.189-7.19h6.537l9.148,9.148c0.271,0.271,0.625,0.405,0.979,0.405  c0.354,0,0.708-0.135,0.979-0.405c0.541-0.541,0.541-1.417,0-1.958l-7.19-7.19h9.431C94.38,51.385,95,50.765,95,50  S94.38,48.616,93.615,48.616z"></path></svg>